<?xml version="1.0" encoding="UTF-8" standalone="no"?>
<!-- Created with Inkscape (http://www.inkscape.org/) -->

<svg
   width="30.00024mm"
   height="29.99972mm"
   viewBox="0 0 30.00024 29.99972"
   version="1.1"
   id="svg5832"
   xmlns="http://www.w3.org/2000/svg"
   xmlns:svg="http://www.w3.org/2000/svg">
  <defs
     id="defs5829" />
  <g
     id="layer1"
     transform="translate(-89.45327,-133.50014)">
    <g
       id="g26698">
      <path
         id="circle10080"
         style="fill:#ffffff;fill-rule:evenodd;stroke-width:0.264583"
         d="m 107.79498,148.70139 a 3.2504449,3.0874028 0 0 1 -3.25045,3.0874 3.2504449,3.0874028 0 0 1 -3.25044,-3.0874 3.2504449,3.0874028 0 0 1 3.25044,-3.08741 3.2504449,3.0874028 0 0 1 3.25045,3.08741 z" />
      <rect
         style="fill:#ffffff;fill-opacity:1;fill-rule:evenodd;stroke-width:0.264583;stroke-linecap:butt;stroke-linejoin:miter;stroke-miterlimit:4;stroke-dasharray:none;stroke-dashoffset:0;stroke-opacity:1"
         id="rect8517"
         width="29.330261"
         height="29.077417"
         x="89.733978"
         y="133.89609"
         ry="4.3348317" />
      <path
         id="path5795"
         style="fill:#3bbb26;fill-opacity:1;fill-rule:evenodd;stroke:none;stroke-width:0.265;stroke-dasharray:none"
         d="m 107.34551,148.49977 a 2.8920968,2.8920968 0 0 1 -2.89209,2.89209 2.8920968,2.8920968 0 0 1 -2.8921,-2.89209 2.8920968,2.8920968 0 0 1 2.8921,-2.8921 2.8920968,2.8920968 0 0 1 2.89209,2.8921 z M 95.026015,134.08324 c -2.76413,0 -4.98988,2.22476 -4.98988,4.98888 v 18.85526 c 0,2.76413 2.22575,4.98938 4.98988,4.98938 h 18.854735 c 2.76413,0 4.98989,-2.22525 4.98989,-4.98938 v -18.85526 c 0,-2.76412 -2.22576,-4.98888 -4.98989,-4.98888 z m -0.38132,-0.5831 c -2.87593,0 -5.19142,2.31497 -5.19142,5.19089 v 19.61793 c 0,2.87594 2.31549,5.1909 5.19142,5.1909 h 19.617395 c 2.87592,0 5.19142,-2.31496 5.19142,-5.1909 v -19.61793 c 0,-2.87592 -2.3155,-5.19089 -5.19142,-5.19089 z" />
      <circle
         style="fill:#3bbb26;fill-opacity:1;fill-rule:evenodd;stroke-width:0.264583"
         id="circle10076"
         cx="96.164177"
         cy="139.53844"
         r="2.8591442" />
      <circle
         style="fill:#3bbb26;fill-opacity:1;fill-rule:evenodd;stroke-width:0.264583"
         id="circle10078"
         cx="113.05532"
         cy="139.53844"
         r="2.8591442" />
      <circle
         style="fill:#3bbb26;fill-opacity:1;fill-rule:evenodd;stroke-width:0.264583"
         id="circle10082"
         cx="96.164177"
         cy="157.21217"
         r="2.8591442" />
      <circle
         style="fill:#3bbb26;fill-opacity:1;fill-rule:evenodd;stroke-width:0.264583"
         id="circle10084"
         cx="113.05532"
         cy="157.21217"
         r="2.8591442" />
    </g>
  </g>
</svg>
